<mxfile host="app.diagrams.net" modified="2023-12-13T12:00:41.463Z" agent="Mozilla/5.0 (Windows NT 10.0; Win64; x64) AppleWebKit/537.36 (KHTML, like Gecko) Chrome/120.0.0.0 Safari/537.36" etag="FOzgGlspgprPZCE9Bz90" version="22.1.8" type="github">
  <diagram name="Page-1" id="QUJMTFwCwnCOsJwNBgMe">
    <mxGraphModel dx="880" dy="438" grid="1" gridSize="10" guides="1" tooltips="1" connect="1" arrows="1" fold="1" page="1" pageScale="1" pageWidth="827" pageHeight="1169" math="0" shadow="0">
      <root>
        <mxCell id="0" />
        <mxCell id="1" parent="0" />
        <mxCell id="9v-3ui9oDbZyXCuWv0Gw-8" style="edgeStyle=orthogonalEdgeStyle;rounded=0;orthogonalLoop=1;jettySize=auto;html=1;exitX=1;exitY=0.5;exitDx=0;exitDy=0;entryX=0.5;entryY=0;entryDx=0;entryDy=0;" edge="1" parent="1" source="9v-3ui9oDbZyXCuWv0Gw-2" target="9v-3ui9oDbZyXCuWv0Gw-7">
          <mxGeometry relative="1" as="geometry" />
        </mxCell>
        <mxCell id="9v-3ui9oDbZyXCuWv0Gw-2" value="Start" style="rounded=1;whiteSpace=wrap;html=1;" vertex="1" parent="1">
          <mxGeometry x="10" y="70" width="120" height="60" as="geometry" />
        </mxCell>
        <mxCell id="9v-3ui9oDbZyXCuWv0Gw-11" style="edgeStyle=orthogonalEdgeStyle;rounded=0;orthogonalLoop=1;jettySize=auto;html=1;exitX=0;exitY=0.5;exitDx=0;exitDy=0;" edge="1" parent="1" source="9v-3ui9oDbZyXCuWv0Gw-3" target="9v-3ui9oDbZyXCuWv0Gw-12">
          <mxGeometry relative="1" as="geometry">
            <mxPoint x="180" y="550" as="targetPoint" />
          </mxGeometry>
        </mxCell>
        <mxCell id="9v-3ui9oDbZyXCuWv0Gw-26" style="edgeStyle=orthogonalEdgeStyle;rounded=0;orthogonalLoop=1;jettySize=auto;html=1;exitX=1;exitY=0.5;exitDx=0;exitDy=0;entryX=0.25;entryY=0;entryDx=0;entryDy=0;" edge="1" parent="1" source="9v-3ui9oDbZyXCuWv0Gw-3" target="9v-3ui9oDbZyXCuWv0Gw-25">
          <mxGeometry relative="1" as="geometry" />
        </mxCell>
        <mxCell id="9v-3ui9oDbZyXCuWv0Gw-3" value="Yes/NO" style="rhombus;whiteSpace=wrap;html=1;" vertex="1" parent="1">
          <mxGeometry x="400" y="260" width="150" height="80" as="geometry" />
        </mxCell>
        <mxCell id="9v-3ui9oDbZyXCuWv0Gw-9" value="" style="edgeStyle=orthogonalEdgeStyle;rounded=0;orthogonalLoop=1;jettySize=auto;html=1;" edge="1" parent="1" source="9v-3ui9oDbZyXCuWv0Gw-7" target="9v-3ui9oDbZyXCuWv0Gw-3">
          <mxGeometry relative="1" as="geometry" />
        </mxCell>
        <mxCell id="9v-3ui9oDbZyXCuWv0Gw-7" value="Approval" style="rounded=1;whiteSpace=wrap;html=1;" vertex="1" parent="1">
          <mxGeometry x="460" y="120" width="120" height="60" as="geometry" />
        </mxCell>
        <mxCell id="9v-3ui9oDbZyXCuWv0Gw-24" style="edgeStyle=orthogonalEdgeStyle;rounded=0;orthogonalLoop=1;jettySize=auto;html=1;exitX=0.5;exitY=1;exitDx=0;exitDy=0;" edge="1" parent="1" source="9v-3ui9oDbZyXCuWv0Gw-10" target="9v-3ui9oDbZyXCuWv0Gw-25">
          <mxGeometry relative="1" as="geometry">
            <mxPoint x="750" y="890" as="targetPoint" />
          </mxGeometry>
        </mxCell>
        <mxCell id="9v-3ui9oDbZyXCuWv0Gw-10" value="Notification" style="rounded=1;whiteSpace=wrap;html=1;" vertex="1" parent="1">
          <mxGeometry x="150" y="640" width="120" height="60" as="geometry" />
        </mxCell>
        <mxCell id="9v-3ui9oDbZyXCuWv0Gw-19" style="edgeStyle=orthogonalEdgeStyle;rounded=0;orthogonalLoop=1;jettySize=auto;html=1;entryX=0.5;entryY=0;entryDx=0;entryDy=0;" edge="1" parent="1" source="9v-3ui9oDbZyXCuWv0Gw-12" target="9v-3ui9oDbZyXCuWv0Gw-18">
          <mxGeometry relative="1" as="geometry">
            <mxPoint x="420" y="570" as="targetPoint" />
          </mxGeometry>
        </mxCell>
        <mxCell id="9v-3ui9oDbZyXCuWv0Gw-12" value="Sc_task" style="rounded=0;whiteSpace=wrap;html=1;" vertex="1" parent="1">
          <mxGeometry x="120" y="410" width="120" height="80" as="geometry" />
        </mxCell>
        <mxCell id="9v-3ui9oDbZyXCuWv0Gw-20" style="edgeStyle=orthogonalEdgeStyle;rounded=0;orthogonalLoop=1;jettySize=auto;html=1;entryX=0.5;entryY=0;entryDx=0;entryDy=0;" edge="1" parent="1" source="9v-3ui9oDbZyXCuWv0Gw-18" target="9v-3ui9oDbZyXCuWv0Gw-10">
          <mxGeometry relative="1" as="geometry">
            <mxPoint x="750" y="710" as="targetPoint" />
          </mxGeometry>
        </mxCell>
        <mxCell id="9v-3ui9oDbZyXCuWv0Gw-23" style="edgeStyle=orthogonalEdgeStyle;rounded=0;orthogonalLoop=1;jettySize=auto;html=1;exitX=0.5;exitY=1;exitDx=0;exitDy=0;entryX=0;entryY=0.5;entryDx=0;entryDy=0;" edge="1" parent="1" source="9v-3ui9oDbZyXCuWv0Gw-18" target="9v-3ui9oDbZyXCuWv0Gw-10">
          <mxGeometry relative="1" as="geometry" />
        </mxCell>
        <mxCell id="9v-3ui9oDbZyXCuWv0Gw-18" value="" style="rhombus;whiteSpace=wrap;html=1;" vertex="1" parent="1">
          <mxGeometry x="320" y="480" width="160" height="80" as="geometry" />
        </mxCell>
        <mxCell id="9v-3ui9oDbZyXCuWv0Gw-22" value="Success&lt;br&gt;----------&lt;br&gt;failed" style="text;html=1;strokeColor=none;fillColor=none;align=center;verticalAlign=middle;whiteSpace=wrap;rounded=0;" vertex="1" parent="1">
          <mxGeometry x="370" y="505" width="60" height="30" as="geometry" />
        </mxCell>
        <mxCell id="9v-3ui9oDbZyXCuWv0Gw-25" value="End" style="rounded=1;whiteSpace=wrap;html=1;" vertex="1" parent="1">
          <mxGeometry x="690" y="860" width="120" height="60" as="geometry" />
        </mxCell>
      </root>
    </mxGraphModel>
  </diagram>
</mxfile>
